<?xml version="1.0" encoding="UTF-8" standalone="no"?>
<!DOCTYPE svg PUBLIC "-//W3C//DTD SVG 1.1//EN" "http://www.w3.org/Graphics/SVG/1.1/DTD/svg11.dtd">
<svg version="1.1" xmlns="http://www.w3.org/2000/svg" xmlns:xlink="http://www.w3.org/1999/xlink" preserveAspectRatio="xMidYMid meet" viewBox="0 0 640 640" width="640" height="640"><defs><path d="M320 0C143.27 0 0 143.27 0 320C0 496.73 143.27 640 320 640C496.73 640 640 496.73 640 320C640 143.27 496.73 0 320 0Z" id="bfgpTbYdj"></path><path d="M107.8 500.64C107.8 524.07 126.68 543.25 149.76 543.25C183.32 543.25 451.8 543.25 485.37 543.25C508.44 543.25 527.32 524.07 527.32 500.64C527.32 482.88 527.32 394.1 527.32 234.29L107.8 234.29C107.8 394.1 107.8 482.88 107.8 500.64Z" id="btbzBWwOU"></path><path d="M107.8 479.33C107.8 502.77 126.68 521.94 149.76 521.94C183.32 521.94 451.8 521.94 485.37 521.94C508.44 521.94 527.32 502.77 527.32 479.33C527.32 461.57 527.32 372.79 527.32 212.98L107.8 212.98C107.8 372.79 107.8 461.57 107.8 479.33Z" id="d145TXkeZa"></path><path d="M149.76 117.09C126.68 117.09 107.8 136.27 107.8 159.71C107.8 164.68 107.8 189.54 107.8 234.29L527.32 234.29C527.32 189.54 527.32 164.68 527.32 159.71C527.32 136.27 508.44 117.09 485.37 117.09C418.24 117.09 183.32 117.09 149.76 117.09Z" id="e1xwaQh387"></path><path d="M149.76 95.79C126.68 95.79 107.8 114.96 107.8 138.4C107.8 143.37 107.8 168.23 107.8 212.98L527.32 212.98C527.32 168.23 527.32 143.37 527.32 138.4C527.32 114.96 508.44 95.79 485.37 95.79C418.24 95.79 183.32 95.79 149.76 95.79Z" id="et2hRN1QZ"></path><path d="M170.73 170.36C170.73 162.91 170.73 103.24 170.73 95.79C170.73 84.07 180.17 74.48 191.71 74.48C191.71 74.48 191.71 74.48 191.71 74.48C203.24 74.48 212.68 84.07 212.68 95.79C212.68 103.24 212.68 162.91 212.68 170.36C212.68 182.08 203.24 191.67 191.71 191.67C191.71 191.67 191.71 191.67 191.71 191.67C177.72 185.28 170.73 178.18 170.73 170.36Z" id="d19zXTFnf"></path><path d="M432.93 170.36C432.93 162.91 432.93 103.24 432.93 95.79C432.93 84.07 442.37 74.48 453.9 74.48C453.9 74.48 453.9 74.48 453.9 74.48C465.44 74.48 474.88 84.07 474.88 95.79C474.88 103.24 474.88 162.91 474.88 170.36C474.88 182.08 465.44 191.67 453.9 191.67C453.9 191.67 453.9 191.67 453.9 191.67C439.92 185.28 432.93 178.18 432.93 170.36Z" id="b1PKuHWuh1"></path><path d="M170.73 149.06C170.73 141.6 170.73 81.94 170.73 74.48C170.73 62.76 180.17 53.17 191.71 53.17C191.71 53.17 191.71 53.17 191.71 53.17C203.24 53.17 212.68 62.76 212.68 74.48C212.68 81.94 212.68 141.6 212.68 149.06C212.68 160.78 203.24 170.36 191.71 170.36C191.71 170.36 191.71 170.36 191.71 170.36C177.72 163.97 170.73 156.87 170.73 149.06Z" id="am7y6tPew"></path><path d="M432.93 149.06C432.93 141.6 432.93 81.94 432.93 74.48C432.93 62.76 442.37 53.17 453.9 53.17C453.9 53.17 453.9 53.17 453.9 53.17C465.44 53.17 474.88 62.76 474.88 74.48C474.88 81.94 474.88 141.6 474.88 149.06C474.88 160.78 465.44 170.36 453.9 170.36C453.9 170.36 453.9 170.36 453.9 170.36C439.92 163.97 432.93 156.87 432.93 149.06Z" id="i6vsrKvaUn"></path><path d="M210.52 446.88C210.52 388.29 229.39 345.67 247.22 319.03C240.41 319.03 185.87 319.03 179.05 319.03C167.52 319.03 158.08 309.45 158.08 297.73C158.08 286.01 167.52 276.42 179.05 276.42C190.59 276.42 282.88 276.42 294.42 276.42C303.86 276.42 311.2 282.81 314.35 291.33C317.49 299.86 314.35 309.45 307 314.77C304.91 316.9 252.47 356.32 252.47 446.88C252.47 458.6 243.03 468.19 231.49 468.19C219.96 468.19 210.52 458.6 210.52 446.88Z" id="c3BRSujJTF"></path><path d="M377.76 446.88C377.76 388.29 396.63 345.67 414.46 319.03C407.65 319.03 353.11 319.03 346.29 319.03C334.76 319.03 325.32 309.45 325.32 297.73C325.32 286.01 334.76 276.42 346.29 276.42C357.83 276.42 450.12 276.42 461.66 276.42C471.1 276.42 478.44 282.81 481.59 291.33C484.73 299.86 481.59 309.45 474.24 314.77C472.15 316.9 419.71 356.32 419.71 446.88C419.71 458.6 410.27 468.19 398.73 468.19C387.2 468.19 377.76 458.6 377.76 446.88Z" id="b3zJzeIqV7"></path></defs><g><g><g><use xlink:href="#bfgpTbYdj" opacity="1" fill="#1b5e20" fill-opacity="1"></use><g><use xlink:href="#bfgpTbYdj" opacity="1" fill-opacity="0" stroke="#000000" stroke-width="1" stroke-opacity="0"></use></g></g><g><use xlink:href="#btbzBWwOU" opacity="1" fill="#231f20" fill-opacity="1"></use><g><use xlink:href="#btbzBWwOU" opacity="1" fill-opacity="0" stroke="#000000" stroke-width="1" stroke-opacity="0"></use></g></g><g><use xlink:href="#d145TXkeZa" opacity="1" fill="#ffffff" fill-opacity="1"></use><g><use xlink:href="#d145TXkeZa" opacity="1" fill-opacity="0" stroke="#000000" stroke-width="1" stroke-opacity="0"></use></g></g><g><use xlink:href="#e1xwaQh387" opacity="1" fill="#231f20" fill-opacity="1"></use><g><use xlink:href="#e1xwaQh387" opacity="1" fill-opacity="0" stroke="#000000" stroke-width="1" stroke-opacity="0"></use></g></g><g><use xlink:href="#et2hRN1QZ" opacity="1" fill="#5cc77e" fill-opacity="1"></use><g><use xlink:href="#et2hRN1QZ" opacity="1" fill-opacity="0" stroke="#000000" stroke-width="1" stroke-opacity="0"></use></g></g><g><use xlink:href="#d19zXTFnf" opacity="1" fill="#231f20" fill-opacity="1"></use><g><use xlink:href="#d19zXTFnf" opacity="1" fill-opacity="0" stroke="#000000" stroke-width="1" stroke-opacity="0"></use></g></g><g><use xlink:href="#b1PKuHWuh1" opacity="1" fill="#231f20" fill-opacity="1"></use><g><use xlink:href="#b1PKuHWuh1" opacity="1" fill-opacity="0" stroke="#000000" stroke-width="1" stroke-opacity="0"></use></g></g><g><use xlink:href="#am7y6tPew" opacity="1" fill="#e0e0d1" fill-opacity="1"></use><g><use xlink:href="#am7y6tPew" opacity="1" fill-opacity="0" stroke="#000000" stroke-width="1" stroke-opacity="0"></use></g></g><g><use xlink:href="#i6vsrKvaUn" opacity="1" fill="#e0e0d1" fill-opacity="1"></use><g><use xlink:href="#i6vsrKvaUn" opacity="1" fill-opacity="0" stroke="#000000" stroke-width="1" stroke-opacity="0"></use></g></g><g><use xlink:href="#c3BRSujJTF" opacity="1" fill="#4f6d73" fill-opacity="1"></use><g><use xlink:href="#c3BRSujJTF" opacity="1" fill-opacity="0" stroke="#000000" stroke-width="1" stroke-opacity="0"></use></g></g><g><use xlink:href="#b3zJzeIqV7" opacity="1" fill="#4f6d73" fill-opacity="1"></use><g><use xlink:href="#b3zJzeIqV7" opacity="1" fill-opacity="0" stroke="#000000" stroke-width="1" stroke-opacity="0"></use></g></g></g></g></svg>